<svg xmlns="http://www.w3.org/2000/svg" xmlns:xlink="http://www.w3.org/1999/xlink" viewBox="0,0,256,256" width="24px" height="24px"><g fill="#ffffff" fill-rule="nonzero" stroke="none" stroke-width="1" stroke-linecap="butt" stroke-linejoin="miter" stroke-miterlimit="10" stroke-dasharray="" stroke-dashoffset="0" font-family="none" font-weight="none" font-size="none" text-anchor="none" style="mix-blend-mode: normal"><g transform="scale(10.66667,10.66667)"><path d="M12,6c-3.31371,0 -6,2.68629 -6,6c0,3.31371 2.68629,6 6,6c3.31371,0 6,-2.68629 6,-6c0,-3.31371 -2.68629,-6 -6,-6z" opacity="0.3"></path><path d="M21,11h3v2h-3zM0,11h3v2h-3zM11,0h2v3h-2zM11,21h2v3h-2z"></path><path transform="translate(-8.04598,19.42377) rotate(-45.001)" d="M18.4,17.9h2v3h-2z"></path><path transform="translate(-1.89503,4.57511) rotate(-45.001)" d="M3.6,3.1h2v3h-2z"></path><path transform="translate(2.45579,15.07749) rotate(-45.009)" d="M17.9,3.6h3v2h-3z"></path><path transform="translate(-12.39298,8.9208) rotate(-44.992)" d="M3.1,18.4h3v2h-3z"></path><path d="M12,19c-3.9,0 -7,-3.1 -7,-7c0,-3.9 3.1,-7 7,-7c3.9,0 7,3.1 7,7c0,3.9 -3.1,7 -7,7zM12,7c-2.8,0 -5,2.2 -5,5c0,2.8 2.2,5 5,5c2.8,0 5,-2.2 5,-5c0,-2.8 -2.2,-5 -5,-5z"></path></g></g></svg>